<?xml version="1.0" encoding="UTF-8" standalone="no"?>
<!DOCTYPE svg PUBLIC "-//W3C//DTD SVG 1.1//EN" "http://www.w3.org/Graphics/SVG/1.1/DTD/svg11.dtd">
<svg xmlns="http://www.w3.org/2000/svg" version="1.1" viewBox="0.00 0.00 49.00 53.00">
<path fill="#ffffff" d="
  M 5.35 0.00
  L 7.85 0.00
  Q 26.36 10.44 44.80 21.12
  C 47.77 22.84 49.37 25.72 47.82 28.87
  Q 46.93 30.67 43.35 32.73
  Q 25.57 43.00 7.80 53.00
  L 5.24 53.00
  Q 0.53 51.50 0.52 47.44
  Q 0.48 26.97 0.53 6.50
  Q 0.54 1.46 5.35 0.00
  Z
  M 6.85 4.44
  A 1.55 1.55 0.0 0 0 4.04 5.34
  L 3.97 47.68
  A 1.55 1.55 0.0 0 0 6.77 48.59
  L 22.00 27.44
  A 1.55 1.55 0.0 0 0 22.01 25.64
  L 6.85 4.44
  Z
  M 14.20 7.66
  Q 12.87 6.90 13.77 8.15
  L 24.46 22.89
  Q 24.85 23.43 25.23 22.89
  L 29.47 17.00
  Q 29.82 16.52 29.30 16.23
  L 14.20 7.66
  Z
  M 43.77 24.60
  L 33.43 18.59
  A 0.68 0.68 0.0 0 0 32.54 18.78
  L 27.32 26.09
  A 0.76 0.74 45.5 0 0 27.32 26.96
  L 32.59 34.29
  Q 32.90 34.71 33.36 34.45
  L 43.77 28.42
  A 2.21 2.21 0.0 0 0 43.77 24.60
  Z
  M 24.76 29.69
  L 13.50 45.22
  A 0.25 0.25 0.0 0 0 13.82 45.58
  L 29.30 36.75
  Q 29.79 36.46 29.46 36.00
  L 24.96 29.69
  A 0.12 0.12 0.0 0 0 24.76 29.69
  Z"
/>
</svg>
