<?xml version="1.0" encoding="UTF-8" standalone="no"?>
<!DOCTYPE svg PUBLIC "-//W3C//DTD SVG 1.1//EN" "http://www.w3.org/Graphics/SVG/1.1/DTD/svg11.dtd">
<svg xmlns="http://www.w3.org/2000/svg" version="1.1" viewBox="0.00 0.00 764.00 34.00">
<g stroke-width="2.00" fill="none" stroke-linecap="butt">
<path stroke="#b1aba3" stroke-opacity="0.796" vector-effect="non-scaling-stroke" d="
  M 217.00 17.98
  Q 218.51 17.73 217.99 15.86"
/>
<path stroke="#b1aba3" stroke-opacity="0.796" vector-effect="non-scaling-stroke" d="
  M 41.50 17.24
  L 41.75 16.79"
/>
<path stroke="#b1aba3" stroke-opacity="0.796" vector-effect="non-scaling-stroke" d="
  M 542.75 15.75
  L 542.24 18.11"
/>
<path stroke="#b1aba3" stroke-opacity="0.796" vector-effect="non-scaling-stroke" d="
  M 704.98 16.77
  L 705.75 17.21"
/>
<path stroke="#825719" vector-effect="non-scaling-stroke" d="
  M 383.03 15.98
  L 385.22 12.03
  Q 385.50 11.51 384.97 11.26
  Q 380.95 9.35 376.82 11.06
  A 0.54 0.53 -24.3 0 0 376.54 11.79
  L 378.68 16.20
  Q 378.89 16.64 379.39 16.63
  L 382.06 16.56
  Q 382.71 16.55 383.03 15.98"
/>
<path stroke="#825719" vector-effect="non-scaling-stroke" d="
  M 380.6566 22.2749
  A 2.14 1.95 96.8 0 0 382.8463 20.3809
  A 2.14 1.95 96.8 0 0 381.1634 18.0251
  A 2.14 1.95 96.8 0 0 378.9737 19.9191
  A 2.14 1.95 96.8 0 0 380.6566 22.2749"
/>
<path stroke="#825719" vector-effect="non-scaling-stroke" d="
  M 376.44 28.44
  L 378.71 24.25
  Q 378.92 23.86 378.72 23.47
  L 377.31 20.68
  Q 377.09 20.25 376.60 20.25
  L 372.24 20.25
  Q 371.69 20.25 371.70 20.80
  Q 371.81 25.67 375.67 28.61
  A 0.52 0.52 0.0 0 0 376.44 28.44"
/>
<path stroke="#825719" vector-effect="non-scaling-stroke" d="
  M 385.17 20.25
  A 2.78 2.78 0.0 0 0 383.05 24.82
  Q 384.32 26.33 384.98 28.02
  A 0.88 0.88 0.0 0 0 386.38 28.37
  Q 389.75 25.43 390.14 20.94
  Q 390.20 20.25 389.51 20.25
  L 385.17 20.25"
/>
</g>
<path fill="#ffa92d" d="
  M 380.06 0.00
  L 381.56 0.00
  Q 384.03 0.65 385.03 2.46
  Q 390.96 13.19 396.83 23.97
  C 400.36 30.45 397.89 33.69 390.95 33.73
  Q 380.15 33.79 369.36 33.72
  C 363.98 33.69 361.70 29.73 364.33 24.82
  Q 369.58 15.04 375.07 5.38
  C 376.51 2.83 377.03 1.03 380.06 0.00
  Z
  M 383.03 15.98
  L 385.22 12.03
  Q 385.50 11.51 384.97 11.26
  Q 380.95 9.35 376.82 11.06
  A 0.54 0.53 -24.3 0 0 376.54 11.79
  L 378.68 16.20
  Q 378.89 16.64 379.39 16.63
  L 382.06 16.56
  Q 382.71 16.55 383.03 15.98
  Z
  M 380.6566 22.2749
  A 2.14 1.95 96.8 0 0 382.8463 20.3809
  A 2.14 1.95 96.8 0 0 381.1634 18.0251
  A 2.14 1.95 96.8 0 0 378.9737 19.9191
  A 2.14 1.95 96.8 0 0 380.6566 22.2749
  Z
  M 376.44 28.44
  L 378.71 24.25
  Q 378.92 23.86 378.72 23.47
  L 377.31 20.68
  Q 377.09 20.25 376.60 20.25
  L 372.24 20.25
  Q 371.69 20.25 371.70 20.80
  Q 371.81 25.67 375.67 28.61
  A 0.52 0.52 0.0 0 0 376.44 28.44
  Z
  M 385.17 20.25
  A 2.78 2.78 0.0 0 0 383.05 24.82
  Q 384.32 26.33 384.98 28.02
  A 0.88 0.88 0.0 0 0 386.38 28.37
  Q 389.75 25.43 390.14 20.94
  Q 390.20 20.25 389.51 20.25
  L 385.17 20.25
  Z"
/>
<path fill="#040504" d="
  M 383.03 15.98
  Q 382.71 16.55 382.06 16.56
  L 379.39 16.63
  Q 378.89 16.64 378.68 16.20
  L 376.54 11.79
  A 0.54 0.53 -24.3 0 1 376.82 11.06
  Q 380.95 9.35 384.97 11.26
  Q 385.50 11.51 385.22 12.03
  L 383.03 15.98
  Z"
/>
<path fill="#928a81" fill-opacity="0.596" d="
  M 217.00 17.98
  Q 218.51 17.73 217.99 15.86
  C 220.53 15.58 223.12 15.25 225.68 15.26
  Q 250.21 15.29 274.74 14.58
  C 278.46 14.47 281.11 16.15 285.24 15.11
  A 1.99 1.98 47.0 0 1 286.31 15.15
  Q 288.82 15.97 290.61 14.39
  Q 291.02 14.03 291.57 14.10
  Q 297.33 14.81 303.03 15.58
  C 304.66 15.80 305.55 14.74 307.10 15.04
  Q 310.25 15.64 313.24 14.50
  A 1.50 1.43 41.3 0 1 314.21 14.46
  Q 319.19 15.94 324.21 15.32
  C 327.27 14.95 330.20 15.57 333.29 14.95
  Q 333.82 14.84 334.28 15.14
  L 336.44 16.56
  A 0.52 0.52 0.0 0 1 336.44 17.43
  L 334.21 18.90
  Q 333.77 19.19 333.25 19.07
  Q 329.70 18.30 326.17 19.18
  Q 325.67 19.31 325.21 19.10
  C 322.07 17.70 316.40 18.96 313.67 19.49
  Q 313.19 19.59 312.74 19.38
  C 309.59 17.89 307.44 20.14 304.83 18.52
  Q 304.44 18.28 303.97 18.33
  L 291.37 19.91
  Q 290.85 19.97 290.48 19.60
  L 289.60 18.73
  A 0.67 0.67 0.0 0 0 288.94 18.56
  Q 286.52 19.23 283.00 18.49
  C 280.55 17.97 278.18 19.53 275.64 19.45
  Q 248.50 18.59 221.36 18.57
  C 220.08 18.57 218.37 18.11 217.00 17.98
  Z"
/>
<path fill="#928a81" fill-opacity="0.596" d="
  M 542.75 15.75
  L 542.24 18.11
  Q 540.10 18.44 537.93 18.48
  C 520.67 18.80 503.37 18.76 486.13 19.56
  C 483.81 19.67 482.27 18.49 480.16 18.56
  C 478.36 18.61 472.56 18.18 471.21 19.46
  A 1.33 1.33 0.0 0 1 470.15 19.81
  L 457.82 18.38
  A 1.49 1.47 32.2 0 0 456.91 18.58
  Q 454.86 19.85 452.66 18.59
  Q 452.18 18.32 451.65 18.49
  L 449.16 19.29
  A 2.28 2.27 -50.9 0 1 448.22 19.39
  L 438.18 18.35
  A 1.29 1.29 0.0 0 0 437.16 18.70
  C 436.42 19.42 430.18 18.67 428.34 19.05
  Q 427.78 19.16 427.32 18.81
  L 425.35 17.31
  Q 424.83 16.91 425.38 16.54
  L 427.23 15.33
  Q 427.74 14.99 428.35 15.06
  C 430.35 15.30 436.21 14.46 437.38 15.21
  A 1.85 1.79 61.7 0 0 438.29 15.50
  Q 442.43 15.70 446.43 14.77
  C 448.98 14.17 450.28 15.56 452.65 15.19
  C 455.35 14.76 457.22 15.84 459.75 15.48
  C 461.59 15.22 471.12 13.26 471.63 15.08
  Q 471.77 15.57 472.27 15.48
  Q 476.58 14.74 480.91 15.66
  A 1.50 1.48 -53.1 0 0 481.92 15.51
  C 485.57 13.51 491.86 14.90 495.92 14.94
  C 511.45 15.11 527.26 14.70 542.75 15.75
  Z"
/>
<path fill="#c3bfb7" fill-opacity="0.996" d="
  M 217.99 15.86
  Q 218.51 17.73 217.00 17.98
  L 41.50 17.24
  L 41.75 16.79
  L 217.99 15.86
  Z"
/>
<path fill="#c3bfb7" fill-opacity="0.996" d="
  M 542.75 15.75
  L 704.98 16.77
  L 705.75 17.21
  L 542.24 18.11
  L 542.75 15.75
  Z"
/>
<path fill="#928a81" fill-opacity="0.596" d="
  M 41.75 16.79
  L 41.50 17.24
  L 38.04 17.23
  Q 37.37 17.23 38.02 17.08
  Q 39.86 16.64 41.75 16.79
  Z"
/>
<path fill="#928a81" fill-opacity="0.596" d="
  M 704.98 16.77
  Q 710.00 16.60 714.96 16.81
  A 0.17 0.16 43.7 0 1 714.97 17.14
  Q 710.36 17.50 705.75 17.21
  L 704.98 16.77
  Z"
/>
<path fill="#928a81" fill-opacity="0.596" d="
  M 725.19 17.11
  Q 720.79 17.55 716.16 17.06
  A 0.12 0.11 -43.2 0 1 716.17 16.83
  Q 720.71 16.51 725.19 17.00
  A 0.06 0.06 0.0 0 1 725.19 17.11
  Z"
/>
<ellipse fill="#040504" cx="0.00" cy="0.00" transform="translate(380.91,20.15) rotate(96.8)" rx="2.14" ry="1.95"/>
<path fill="#040504" d="
  M 376.44 28.44
  A 0.52 0.52 0.0 0 1 375.67 28.61
  Q 371.81 25.67 371.70 20.80
  Q 371.69 20.25 372.24 20.25
  L 376.60 20.25
  Q 377.09 20.25 377.31 20.68
  L 378.72 23.47
  Q 378.92 23.86 378.71 24.25
  L 376.44 28.44
  Z"
/>
<path fill="#040504" d="
  M 385.17 20.25
  L 389.51 20.25
  Q 390.20 20.25 390.14 20.94
  Q 389.75 25.43 386.38 28.37
  A 0.88 0.88 0.0 0 1 384.98 28.02
  Q 384.32 26.33 383.05 24.82
  A 2.78 2.78 0.0 0 1 385.17 20.25
  Z"
/>
</svg>
