<?xml version="1.0" encoding="UTF-8" standalone="no"?>
<!DOCTYPE svg PUBLIC "-//W3C//DTD SVG 1.1//EN" "http://www.w3.org/Graphics/SVG/1.1/DTD/svg11.dtd">
<svg xmlns="http://www.w3.org/2000/svg" version="1.1" viewBox="0.00 0.00 50.00 57.00">
<path fill="#ffffff" d="
  M 37.02 22.71
  C 36.95 30.22 38.41 39.84 34.57 46.62
  C 23.44 66.29 -5.97 53.39 1.11 32.28
  C 3.73 24.47 10.25 20.31 18.38 19.65
  A 1.72 1.71 87.5 0 1 20.24 21.36
  L 20.25 31.01
  Q 20.25 31.56 19.72 31.71
  C 18.09 32.14 16.22 31.93 14.91 32.89
  C 4.78 40.30 24.94 53.98 24.98 33.99
  Q 25.01 17.55 25.00 1.09
  Q 25.00 0.53 25.55 0.52
  L 35.90 0.32
  A 0.98 0.97 -0.0 0 1 36.90 1.31
  C 36.80 9.04 41.63 11.98 48.60 12.75
  Q 49.25 12.82 49.25 13.47
  L 49.25 23.78
  Q 49.25 24.37 48.67 24.43
  Q 42.77 25.02 37.55 22.39
  Q 37.03 22.13 37.02 22.71
  Z
  M 12.51 45.54
  C 5.87 40.76 8.90 30.82 16.42 28.65
  Q 16.89 28.51 16.87 28.03
  L 16.70 23.53
  Q 16.68 22.97 16.14 23.12
  Q 3.09 26.59 3.57 39.13
  C 4.31 57.97 33.25 58.30 33.47 36.99
  Q 33.56 28.21 33.48 19.29
  A 2.15 2.14 -12.6 0 1 34.73 17.33
  Q 34.77 17.31 35.56 17.44
  Q 35.96 17.51 36.31 17.76
  Q 40.16 20.50 44.91 21.51
  A 0.74 0.74 0.0 0 0 45.81 20.81
  L 45.98 16.60
  Q 46.01 16.03 45.46 15.87
  C 39.19 14.06 35.20 10.94 33.74 4.25
  Q 33.60 3.61 32.94 3.63
  L 28.82 3.75
  Q 28.24 3.77 28.24 4.35
  Q 28.26 19.20 28.24 34.04
  Q 28.24 39.16 27.44 41.35
  C 25.14 47.64 17.69 49.26 12.51 45.54
  Z"
/>
</svg>
