<svg xmlns="http://www.w3.org/2000/svg" viewBox="0 0 49 53"><path fill="#fff" d="M5.35 0h2.5Q26.36 10.44 44.8 21.12c2.97 1.72 4.57 4.6 3.02 7.75q-.89 1.8-4.47 3.86Q25.57 43 7.8 53H5.24Q.53 51.5.52 47.44.48 26.97.53 6.5.54 1.46 5.35 0Zm1.5 4.44a1.55 1.55 0 0 0-2.81.9l-.07 42.34a1.55 1.55 0 0 0 2.8.91L22 27.44a1.55 1.55 0 0 0 .01-1.8L6.85 4.44Zm7.35 3.22q-1.33-.76-.43.49l10.69 14.74q.39.54.77 0L29.47 17q.35-.48-.17-.77L14.2 7.66ZM43.77 24.6l-10.34-6.01a.68.68 0 0 0-.89.19l-5.22 7.31a.76.74 45.5 0 0 0 .87l5.27 7.33q.31.42.77.16l10.41-6.03a2.21 2.21 0 0 0 0-3.82Zm-19.01 5.09L13.5 45.22a.25.25 0 0 0 .32.36l15.48-8.83q.49-.29.16-.75l-4.5-6.31a.12.12 0 0 0-.2 0Z"/></svg>