<svg xmlns="http://www.w3.org/2000/svg" viewBox="0 0 764 34"><g stroke-width="2" fill="none"><path stroke="#b1aba3" stroke-opacity=".796" vector-effect="non-scaling-stroke" d="M217 17.98q1.51-.25.99-2.12M41.5 17.24l.25-.45m501-1.04-.51 2.36m162.74-1.34.77.44"/><path stroke="#825719" vector-effect="non-scaling-stroke" d="m383.03 15.98 2.19-3.95q.28-.52-.25-.77-4.02-1.91-8.15-.2a.54.53-24.3 0 0-.28.73l2.14 4.41q.21.44.71.43l2.67-.07q.65-.01.97-.58m-2.373 6.295a2.14 1.95 96.8 0 0 2.19-1.894 2.14 1.95 96.8 0 0-1.684-2.356 2.14 1.95 96.8 0 0-2.19 1.894 2.14 1.95 96.8 0 0 1.684 2.356m-4.217 6.165 2.27-4.19q.21-.39.01-.78l-1.41-2.79q-.22-.43-.71-.43h-4.36q-.55 0-.54.55.11 4.87 3.97 7.81a.52.52 0 0 0 .77-.17m8.73-8.19a2.78 2.78 0 0 0-2.12 4.57q1.27 1.51 1.93 3.2a.88.88 0 0 0 1.4.35q3.37-2.94 3.76-7.43.06-.69-.63-.69h-4.34"/></g><path fill="#ffa92d" d="M380.06 0h1.5q2.47.65 3.47 2.46 5.93 10.73 11.8 21.51c3.53 6.48 1.06 9.72-5.88 9.76q-10.8.06-21.59-.01c-5.38-.03-7.66-3.99-5.03-8.9q5.25-9.78 10.74-19.44c1.44-2.55 1.96-4.35 4.99-5.38Zm2.97 15.98 2.19-3.95q.28-.52-.25-.77-4.02-1.91-8.15-.2a.54.53-24.3 0 0-.28.73l2.14 4.41q.21.44.71.43l2.67-.07q.65-.01.97-.58Zm-2.373 6.295a2.14 1.95 96.8 0 0 2.19-1.894 2.14 1.95 96.8 0 0-1.684-2.356 2.14 1.95 96.8 0 0-2.19 1.894 2.14 1.95 96.8 0 0 1.684 2.356Zm-4.217 6.165 2.27-4.19q.21-.39.01-.78l-1.41-2.79q-.22-.43-.71-.43h-4.36q-.55 0-.54.55.11 4.87 3.97 7.81a.52.52 0 0 0 .77-.17Zm8.73-8.19a2.78 2.78 0 0 0-2.12 4.57q1.27 1.51 1.93 3.2a.88.88 0 0 0 1.4.35q3.37-2.94 3.76-7.43.06-.69-.63-.69h-4.34Z"/><path fill="#040504" d="M383.03 15.98q-.32.57-.97.58l-2.67.07q-.5.01-.71-.43l-2.14-4.41a.54.53-24.3 0 1 .28-.73q4.13-1.71 8.15.2.53.25.25.77l-2.19 3.95Z"/><path fill="#928a81" fill-opacity=".596" d="M217 17.98q1.51-.25.99-2.12c2.54-.28 5.13-.61 7.69-.6q24.53.03 49.06-.68c3.72-.11 6.37 1.57 10.5.53a1.99 1.98 47 0 1 1.07.04q2.51.82 4.3-.76.41-.36.96-.29 5.76.71 11.46 1.48c1.63.22 2.52-.84 4.07-.54q3.15.6 6.14-.54a1.5 1.43 41.3 0 1 .97-.04q4.98 1.48 10 .86c3.06-.37 5.99.25 9.08-.37q.53-.11.99.19l2.16 1.42a.52.52 0 0 1 0 .87l-2.23 1.47q-.44.29-.96.17-3.55-.77-7.08.11-.5.13-.96-.08c-3.14-1.4-8.81-.14-11.54.39q-.48.1-.93-.11c-3.15-1.49-5.3.76-7.91-.86q-.39-.24-.86-.19l-12.6 1.58q-.52.06-.89-.31l-.88-.87a.67.67 0 0 0-.66-.17q-2.42.67-5.94-.07c-2.45-.52-4.82 1.04-7.36.96q-27.14-.86-54.28-.88c-1.28 0-2.99-.46-4.36-.59Zm325.75-2.23-.51 2.36q-2.14.33-4.31.37c-17.26.32-34.56.28-51.8 1.08-2.32.11-3.86-1.07-5.97-1-1.8.05-7.6-.38-8.95.9a1.33 1.33 0 0 1-1.06.35l-12.33-1.43a1.49 1.47 32.2 0 0-.91.2q-2.05 1.27-4.25.01-.48-.27-1.01-.1l-2.49.8a2.28 2.27-50.9 0 1-.94.1l-10.04-1.04a1.29 1.29 0 0 0-1.02.35c-.74.72-6.98-.03-8.82.35q-.56.11-1.02-.24l-1.97-1.5q-.52-.4.03-.77l1.85-1.21q.51-.34 1.12-.27c2 .24 7.86-.6 9.03.15a1.85 1.79 61.7 0 0 .91.29q4.14.2 8.14-.73c2.55-.6 3.85.79 6.22.42 2.7-.43 4.57.65 7.1.29 1.84-.26 11.37-2.22 11.88-.4q.14.49.64.4 4.31-.74 8.64.18a1.5 1.48-53.1 0 0 1.01-.15c3.65-2 9.94-.61 14-.57 15.53.17 31.34-.24 46.83.81Z"/><path fill="#c3bfb7" fill-opacity=".996" d="M217.99 15.86q.52 1.87-.99 2.12l-175.5-.74.25-.45 176.24-.93Zm324.76-.11 162.23 1.02.77.44-163.51.9.51-2.36Z"/><path fill="#928a81" fill-opacity=".596" d="m41.75 16.79-.25.45-3.46-.01q-.67 0-.02-.15 1.84-.44 3.73-.29Zm663.23-.02q5.02-.17 9.98.04a.17.16 43.7 0 1 .01.33q-4.61.36-9.22.07l-.77-.44Zm20.21.34q-4.4.44-9.03-.05a.12.11-43.2 0 1 .01-.23q4.54-.32 9.02.17a.06.06 0 0 1 0 .11Z"/><ellipse fill="#040504" transform="rotate(96.8 181.51 179.169)" rx="2.14" ry="1.95"/><path fill="#040504" d="M376.44 28.44a.52.52 0 0 1-.77.17q-3.86-2.94-3.97-7.81-.01-.55.54-.55h4.36q.49 0 .71.43l1.41 2.79q.2.39-.01.78l-2.27 4.19Zm8.73-8.19h4.34q.69 0 .63.69-.39 4.49-3.76 7.43a.88.88 0 0 1-1.4-.35q-.66-1.69-1.93-3.2a2.78 2.78 0 0 1 2.12-4.57Z"/></svg>