<svg xmlns="http://www.w3.org/2000/svg" viewBox="0 0 50 57"><path fill="#fff" d="M37.02 22.71c-.07 7.51 1.39 17.13-2.45 23.91C23.44 66.29-5.97 53.39 1.11 32.28c2.62-7.81 9.14-11.97 17.27-12.63a1.72 1.71 87.5 0 1 1.86 1.71l.01 9.65q0 .55-.53.7c-1.63.43-3.5.22-4.81 1.18-10.13 7.41 10.03 21.09 10.07 1.1q.03-16.44.02-32.9 0-.56.55-.57L35.9.32a.98.97 0 0 1 1 .99c-.1 7.73 4.73 10.67 11.7 11.44q.65.07.65.72v10.31q0 .59-.58.65-5.9.59-11.12-2.04-.52-.26-.53.32ZM12.51 45.54c-6.64-4.78-3.61-14.72 3.91-16.89q.47-.14.45-.62l-.17-4.5q-.02-.56-.56-.41Q3.09 26.59 3.57 39.13c.74 18.84 29.68 19.17 29.9-2.14q.09-8.78.01-17.7a2.15 2.14-12.6 0 1 1.25-1.96q.04-.02.83.11.4.07.75.32 3.85 2.74 8.6 3.75a.74.74 0 0 0 .9-.7l.17-4.21q.03-.57-.52-.73c-6.27-1.81-10.26-4.93-11.72-11.62q-.14-.64-.8-.62l-4.12.12q-.58.02-.58.6.02 14.85 0 29.69 0 5.12-.8 7.31c-2.3 6.29-9.75 7.91-14.93 4.19Z"/></svg>